<svg xmlns="http://www.w3.org/2000/svg" viewBox="0 0 50 50"><defs><style>.cls-1{fill:#fff;}</style></defs><g id="レイヤー_2" data-name="レイヤー 2"><g id="レイヤー_1-2" data-name="レイヤー 1"><circle cx="25" cy="25" r="25"/><path class="cls-1" d="M20.22,15.27a5,5,0,0,0-4.95,4.94V30.92a5,5,0,0,0,4.95,4.95H30.93a5,5,0,0,0,4.94-4.95V20.22a4.94,4.94,0,0,0-4.94-4.94ZM30.93,38H20.22a7.09,7.09,0,0,1-7.08-7.08V20.22a7.09,7.09,0,0,1,7.08-7.08H30.93A7.09,7.09,0,0,1,38,20.22V30.93A7.09,7.09,0,0,1,30.93,38Z"/><path class="cls-1" d="M25.57,21.33a4.23,4.23,0,1,0,4.23,4.23A4.23,4.23,0,0,0,25.57,21.33Zm0,10.6a6.36,6.36,0,1,1,6.36-6.36A6.36,6.36,0,0,1,25.57,31.93Z"/><path class="cls-1" d="M33.74,18.84a1.53,1.53,0,1,1-1.53-1.53A1.54,1.54,0,0,1,33.74,18.84Z"/></g></g></svg>