<svg xmlns="http://www.w3.org/2000/svg" viewBox="0 0 124.61 72.26"><defs><style>.cls-1{fill:#d1a96f;}.cls-2{fill:#68895d;}.cls-3{font-size:14.82px;fill:#251e1c;font-family:AdornGarland, Adorn Garland;}.cls-4{fill:none;stroke:#251e1c;stroke-miterlimit:10;stroke-width:0.32px;}</style></defs><g id="レイヤー_2" data-name="レイヤー 2"><g id="レイヤー_1-2" data-name="レイヤー 1"><rect class="cls-1" width="38.89" height="38.89"/><rect class="cls-2" x="50.39" width="38.89" height="38.89"/><path d="M14.08,28.23H18.2c.66,0,.65,0,.78.64,0,.1,0,.19.06.29.54-.21,1.06-.44,1.59-.62a6.29,6.29,0,0,1,5.71.82,1.2,1.2,0,0,0,.34.23.68.68,0,0,0,.47,0,7.9,7.9,0,0,1,2.77-1.22,6.16,6.16,0,0,1,5,1,6.28,6.28,0,0,1,2.81,5.42c0,2,0,3.91,0,5.87,0,.36.09.48.46.49,1.14,0,1.14,0,1.14,1.15,0,.93,0,1.85,0,2.77,0,.32-.08.44-.43.44-1.69,0-3.38,0-5.08,0-.38,0-.46-.15-.46-.5,0-3.3,0-6.6,0-9.89A3.38,3.38,0,0,0,33,33.68a2,2,0,0,0-2.18-1,2.05,2.05,0,0,0-1.61,1.81c0,2.1,0,4.19,0,6.29,0,.23.1.31.33.33,1.16.1,1.16.11,1.16,1.29,0,.87,0,1.73,0,2.6,0,.36-.12.49-.49.49-1.65,0-3.3,0-5,0-.44,0-.55-.13-.55-.55q0-4.84,0-9.69a4.25,4.25,0,0,0-.27-1.46,1.89,1.89,0,0,0-2.38-1,1.84,1.84,0,0,0-1.45,1.73c0,2.11,0,4.22,0,6.33,0,.21.07.3.29.3s.61,0,.92,0a.34.34,0,0,1,.38.39v3.61c0,.26-.12.34-.36.34-2.3,0-4.59,0-6.89,0a.41.41,0,0,1-.29-.28q0-1.85,0-3.69c0-.11.17-.28.29-.31a3,3,0,0,1,.79-.06c.3,0,.37-.12.37-.4q0-3.8,0-7.59c0-.29-.06-.44-.39-.42-.52,0-1,0-1.56,0Z"/><path d="M53.63,54H46.15c0-.12,0-.24,0-.36,0-1.15,0-2.29,0-3.44,0-.32.11-.47.42-.48a5.69,5.69,0,0,0,.83-.07c.12,0,.28-.19.28-.3,0-1.19,0-2.37,0-3.56,0-.46-.34-.63-.67-.82a19.14,19.14,0,0,1-2.07-1.32,7.16,7.16,0,0,1-2.6-5.63c-.05-1.61,0-3.22,0-4.82,0-.37-.11-.47-.47-.5-1.12-.07-1.11-.08-1.11-1.18s0-1.9,0-2.85c0-.35.12-.46.47-.46q3.31,0,6.63,0c.33,0,.44.1.44.43,0,1.19,0,2.37,0,3.56,0,.26-.06.38-.34.41s-.87,0-1,.24-.11.71-.1,1.09c0,1.49,0,3,.07,4.48A2.89,2.89,0,0,0,48.74,41,3.12,3.12,0,0,0,53,38c0-1.6,0-3.19,0-4.78,0-.37-.12-.5-.5-.53-1.13-.09-.91.07-.93-1s0-2,0-3c0-.34.11-.46.46-.45h6.51c.34,0,.43.12.43.43q0,1.78,0,3.57c0,.26-.08.37-.35.39s-.82,0-1,.23-.06.66-.06,1c0,1.33,0,2.66,0,4a7.78,7.78,0,0,1-3.58,6.56,3.7,3.7,0,0,1-.91.4A1.21,1.21,0,0,0,52.07,46c0,1.16,0,2.32,0,3.48a.43.43,0,0,0,.28.24c.31.06.64,0,1,.1.12,0,.29.2.29.31C53.64,51.39,53.63,52.69,53.63,54Z"/><path d="M72.31,39.15a8.6,8.6,0,0,1,8.58-8.66,8.67,8.67,0,1,1,0,17.34A8.57,8.57,0,0,1,72.31,39.15Zm4.4,0a4.21,4.21,0,1,0,4.23-4.27A4.32,4.32,0,0,0,76.71,39.18Z"/><path d="M97.94,30c1,0,1.94,0,2.88,0,.36,0,.48.09.48.47,0,1.13,0,2.26,0,3.39,0,.39-.09.55-.51.53-.72,0-1.45,0-2.18,0-.27,0-.37.08-.37.36q0,3.91,0,7.84c0,.25.08.35.34.35s.55,0,.83.07a.37.37,0,0,1,.39.43c0,1.14,0,2.27,0,3.4,0,.32-.13.45-.45.45q-3.36,0-6.72,0c-.34,0-.47-.13-.47-.47q0-1.68,0-3.36c0-.33.14-.46.44-.47l1.1-.08v-8.5h-2c-1.09,0-1.09,0-1.09-1.09s0-1.91,0-2.86c0-.35.12-.46.46-.45.71,0,1.43,0,2.14,0s.61,0,.63-.6c0-.77,0-1.54.08-2.3a6.06,6.06,0,0,1,4.85-5.49,4.67,4.67,0,0,1,.65-.13c.6,0,1.2,0,1.85,0a3,3,0,0,1,0,.41c0,1,0,2.1,0,3.14,0,.27,0,.44-.34.54-.5.17-1,.39-1.47.59a1.76,1.76,0,0,0-1.14,1.35C98.16,28.27,98.07,29.09,97.94,30Z"/><path d="M111.06,21.44V30H114v4.39h-2c-.83,0-.85,0-.85.84,0,1.89.06,3.78,0,5.66,0,1.53.88,1.85,1.87,2s1,.14,1,1.12,0,1.85,0,2.77c0,.33-.08.47-.43.5a6.42,6.42,0,0,1-6.42-3.84,6.64,6.64,0,0,1-.54-2.56c0-2,0-4,0-6,0-.37-.11-.48-.48-.47-.74,0-1.48,0-2.23,0-.31,0-.45-.07-.45-.42,0-1.2,0-2.4,0-3.6,0-.33.1-.44.43-.43.74,0,1.49,0,2.23,0,.33,0,.43-.11.42-.44,0-2.5,0-5,0-7.5,0-.61,0-.61.59-.61Z"/><path d="M68.74,21.46v.63q0,10.13,0,20.25c0,.41.09.55.52.56,1.42,0,1.13,0,1.15,1.18,0,.9,0,1.79,0,2.69,0,.35-.11.49-.48.49q-3.32,0-6.63,0c-.37,0-.46-.14-.46-.47,0-1.13,0-2.27,0-3.4,0-.31.11-.48.44-.46h0c1-.07,1-.07,1-1.07q0-7.79,0-15.55c0-.39-.1-.5-.49-.51-1.19,0-1,0-1-1s0-1.93,0-2.89c0-.33.08-.47.44-.46,1.68,0,3.36,0,5,0Z"/><text class="cls-3" transform="translate(71.97 58.66) rotate(-6.26)">ginza</text><path class="cls-4" d="M72,72.1a205.93,205.93,0,0,1,52.48-12.46"/></g></g></svg>