<svg xmlns="http://www.w3.org/2000/svg" viewBox="0 0 240.95 139.87"><defs><style>.cls-1{fill:#d1a96f;}.cls-2{fill:#68895d;}.cls-3{fill:#fff;}</style></defs><g id="レイヤー_2" data-name="レイヤー 2"><g id="レイヤー_1-2" data-name="レイヤー 1"><rect class="cls-1" width="75.28" height="75.28"/><rect class="cls-2" x="97.54" width="75.28" height="75.28"/><path class="cls-3" d="M27.26,54.64l8,0c1.28,0,1.28,0,1.51,1.24,0,.18.08.36.12.56,1-.42,2-.86,3.08-1.21a12.22,12.22,0,0,1,11,1.59,2.5,2.5,0,0,0,.67.44,1.28,1.28,0,0,0,.91,0,15.07,15.07,0,0,1,5.37-2.37,11.9,11.9,0,0,1,9.63,2A12.13,12.13,0,0,1,73,67.34c0,3.79,0,7.58,0,11.36,0,.7.16.94.9,1,2.19,0,2.19.06,2.19,2.24,0,1.78,0,3.57,0,5.36,0,.61-.17.85-.83.84q-4.92,0-9.83,0c-.75,0-.91-.29-.91-1,0-6.38,0-12.77,0-19.16a7,7,0,0,0-.63-2.78,3.86,3.86,0,0,0-4.22-1.87,4,4,0,0,0-3.12,3.5c-.06,4.06,0,8.12-.06,12.18,0,.45.2.59.63.63,2.25.2,2.25.21,2.25,2.5,0,1.68,0,3.36,0,5,0,.7-.22,1-.94.94-3.19,0-6.39,0-9.59,0-.83,0-1.06-.26-1.05-1.06,0-6.25,0-12.5,0-18.75a8.29,8.29,0,0,0-.51-2.84c-.7-1.78-2.35-2.44-4.61-2a3.56,3.56,0,0,0-2.81,3.35c-.06,4.08,0,8.16-.08,12.25,0,.41.14.59.56.59.6,0,1.19,0,1.79,0a.67.67,0,0,1,.73.77q0,3.48,0,7c0,.49-.24.65-.71.65-4.44,0-8.88,0-13.32,0-.2,0-.57-.36-.57-.55q-.06-3.57,0-7.14c0-.22.33-.55.56-.61a5.59,5.59,0,0,1,1.53-.11c.59,0,.72-.23.72-.78,0-4.89,0-9.79,0-14.69,0-.57-.12-.85-.76-.82-1,.05-2,0-3,0Z"/><path class="cls-3" d="M103.81,104.6H89.34a5.38,5.38,0,0,1-.07-.69c0-2.22,0-4.44,0-6.66,0-.61.2-.9.81-.93a11,11,0,0,0,1.62-.14c.21-.05.53-.37.53-.57,0-2.3,0-4.6,0-6.9,0-.89-.67-1.21-1.3-1.59a34.61,34.61,0,0,1-4-2.55c-3.43-2.79-4.89-6.58-5-10.9-.1-3.11,0-6.22,0-9.33,0-.72-.21-.91-.9-1-2.17-.14-2.16-.17-2.16-2.29,0-1.84,0-3.68,0-5.52,0-.67.24-.9.9-.89q6.42,0,12.85,0c.63,0,.86.19.85.83q0,3.45,0,6.9c0,.49-.12.73-.65.79-.72.08-1.68,0-2,.46s-.19,1.39-.19,2.11c0,2.89.09,5.78.13,8.68a5.65,5.65,0,0,0,3.74,4.84,6.06,6.06,0,0,0,8.16-5.68c0-3.08,0-6.17,0-9.25,0-.71-.23-1-1-1-2.18-.18-1.76.14-1.79-1.91s0-3.9,0-5.85c0-.67.22-.89.89-.88q6.3,0,12.6,0c.66,0,.84.24.83.85q0,3.45,0,6.9c0,.52-.15.72-.67.77-.69.07-1.6,0-2,.43s-.12,1.29-.12,2c0,2.57,0,5.14,0,7.71A15,15,0,0,1,104.31,86a7.25,7.25,0,0,1-1.75.78A2.33,2.33,0,0,0,100.79,89c0,2.24,0,4.49,0,6.73,0,.17.33.44.53.48.61.1,1.25.07,1.86.19.23,0,.57.39.57.6C103.82,99.48,103.81,102,103.81,104.6Z"/><path class="cls-3" d="M140,75.78A16.63,16.63,0,0,1,156.58,59a16.78,16.78,0,1,1-.08,33.56A16.56,16.56,0,0,1,140,75.78Zm8.5.06a8.15,8.15,0,1,0,8.19-8.27A8.38,8.38,0,0,0,148.48,75.84Z"/><path class="cls-3" d="M189.58,58c1.95,0,3.77,0,5.57,0,.71,0,.94.18.93.91-.05,2.19,0,4.38,0,6.57,0,.76-.18,1.06-1,1-1.41-.07-2.82,0-4.23,0-.52,0-.71.16-.71.69q0,7.59,0,15.18c0,.49.16.68.65.69s1.08.08,1.62.13.75.29.75.84q0,3.28,0,6.57c0,.62-.24.87-.87.86q-6.49,0-13,0c-.67,0-.91-.24-.91-.9,0-2.17,0-4.33,0-6.5a.78.78,0,0,1,.85-.92l2.13-.15V66.51h-3.91c-2.12,0-2.12,0-2.12-2.12,0-1.84,0-3.68,0-5.52,0-.69.24-.89.9-.87,1.38,0,2.76,0,4.14,0,1.21,0,1.19,0,1.21-1.16,0-1.49,0-3,.16-4.46a11.71,11.71,0,0,1,9.39-10.61,7.06,7.06,0,0,1,1.26-.26c1.16,0,2.33,0,3.58,0a7.47,7.47,0,0,1,.09.78c0,2,0,4.06,0,6.09a.9.9,0,0,1-.66,1c-1,.33-1.9.77-2.85,1.15a3.43,3.43,0,0,0-2.2,2.61C190,54.72,189.84,56.3,189.58,58Z"/><path class="cls-3" d="M215,41.51V58h5.67v8.51h-3.86c-1.61,0-1.64,0-1.64,1.62,0,3.65.11,7.31,0,11-.05,3,1.69,3.57,3.61,3.91s1.91.27,1.91,2.17,0,3.57,0,5.36c0,.64-.17.9-.84,1A12.38,12.38,0,0,1,207.46,84a12.78,12.78,0,0,1-1.05-5c0-3.84,0-7.69,0-11.53,0-.72-.22-.94-.93-.92-1.43,0-2.87,0-4.3,0-.61,0-.88-.14-.87-.81q0-3.5,0-7c0-.64.2-.85.84-.83,1.44,0,2.88,0,4.31,0,.65,0,.83-.21.83-.84,0-4.84,0-9.69,0-14.53,0-1.17,0-1.17,1.14-1.17Z"/><path class="cls-3" d="M133.06,41.54v1.23q0,19.59,0,39.19c0,.8.18,1.06,1,1.09,2.74.07,2.17,0,2.21,2.28,0,1.73,0,3.46,0,5.19,0,.7-.22,1-.94,1q-6.41,0-12.83,0c-.71,0-.89-.27-.88-.9q0-3.28,0-6.58c0-.6.2-.92.84-.9h.08c2-.15,2-.15,2-2.08q0-15.06,0-30.11c0-.74-.19-1-.94-1-2.3-.05-1.92,0-1.94-2s0-3.73,0-5.6c0-.64.15-.89.86-.88,3.25,0,6.5,0,9.75,0Z"/><path class="cls-3" d="M150.48,113.83a9.91,9.91,0,0,0-.47,1c0,.35-.21,1-.32,1.53a10.46,10.46,0,0,1-1.42,3.16c-.33.38-.45,1.17-.66,1.31a2.42,2.42,0,0,0-.91,1,6.74,6.74,0,0,1-1.21,1.51c-.3.21-1.26.69-1.44.85s-1,.28-1.12.3a4.35,4.35,0,0,1-1.57-.4,1,1,0,0,1-.62-.92,2.84,2.84,0,0,1,.48-1.61c.29-.52.57-.87.84-1.3s1.05-1.24,1.2-1.46a3,3,0,0,1,.79-.9,2.39,2.39,0,0,0,.82-.72,5.48,5.48,0,0,1,1.38-1.36c.59-.41,1.1-1,1.63-1.39a2.42,2.42,0,0,0,.78-1.36,20.28,20.28,0,0,0,.41-2,3.75,3.75,0,0,0,.09-.74.27.27,0,0,0-.28-.25c-.26,0-.39.41-.62.44-.29.23-.81.49-.9.73s-.51.58-.83.84a2.84,2.84,0,0,0-.73.75,4.19,4.19,0,0,1-1.91,1c-.65.07-1.46-.19-1.52-.73a4.65,4.65,0,0,1,.1-1.43c.1-.41.28-.63.35-1a5.14,5.14,0,0,1,.76-1.26c.2-.25.45-.6.75-1-.32.27-1.38.82-1.62,1s-1,.57-1.16.7a13,13,0,0,1-1.17.65c-.22.11-.54.32-.7.42a1.19,1.19,0,0,1-.44.22.4.4,0,0,1-.4-.21c0-.12.12-.19.34-.33a1.26,1.26,0,0,1,.29-.2,1.18,1.18,0,0,0,.66-.36,3.75,3.75,0,0,1,1-.66,15.63,15.63,0,0,0,1.62-1c1.11-.67,2.07-1.47,3.23-2.14.06,0,.56-.21.72-.31.43-.25.37-.3.91-.65a4.85,4.85,0,0,1,2.43-1c.71-.08,1.74.33,1.8.93a2.47,2.47,0,0,1-.08.79,1.44,1.44,0,0,1-.72.83c-.26,0-.41-.07-.45-.39s.17-.56.15-.73c0-.38-.3-.66-.56-.64a2.38,2.38,0,0,0-1.06.32,6.72,6.72,0,0,0-1,.89c-.42.34-.52.75-.71.89s-.52.52-.78.75a12,12,0,0,0-1.29,1.61,3.52,3.52,0,0,0-.68,2c0,.26.14.48.34.45a9.42,9.42,0,0,0,1.14-.9c.41-.25.85-.7,1.08-.72s.54-.53.75-.72a3.7,3.7,0,0,1,1-.77,2.85,2.85,0,0,1,1.07-.52c.31,0,.67.33.89.48a.56.56,0,0,1,.22.44c0,.11,0,.23,0,.37,0,.34-.26,1.59-.2,2.16,0,.25.11.47.43.44a7.8,7.8,0,0,0,1.76-1.06,6,6,0,0,0,1-.54c.13-.13.94-.56,1.59-1,.22-.11.05-.06.43-.31a2.83,2.83,0,0,0,.38-.24,1.64,1.64,0,0,0,.4-.27.75.75,0,0,1,.39-.19.31.31,0,0,1,.23.06.38.38,0,0,1,.11.19.29.29,0,0,1-.09.21,3.74,3.74,0,0,0-1,.71c-.37.3-.55.29-1,.63a2.52,2.52,0,0,1-.65.36,7.62,7.62,0,0,0-1.47.88c-.24.17-1.6.93-1.9,1.08S150.55,113.42,150.48,113.83Zm-3.85,2.53c-.38.22-.36.47-.73.72a15.86,15.86,0,0,0-2.87,3.31,2.73,2.73,0,0,0-.59.93,3.52,3.52,0,0,0-.34,1.08,1.75,1.75,0,0,0-.06.55.41.41,0,0,0,.18.33.68.68,0,0,0,.5.09,1.2,1.2,0,0,0,.56-.18,6.94,6.94,0,0,0,1.93-1.88,4.06,4.06,0,0,1,.58-1,5.81,5.81,0,0,0,.66-1.17c.31-.81,1.49-3,1.49-3.77A9.35,9.35,0,0,0,146.63,116.36Z"/><path class="cls-3" d="M167.58,110.89c-.15.22-.56.15-.88.36a3.43,3.43,0,0,1-.57.12,6.23,6.23,0,0,1-1,0,2.23,2.23,0,0,1-1.1-.54,1.87,1.87,0,0,1-.54-1c0-.2-.07-.37-.09-.54a1.55,1.55,0,0,1,0-.69c.16-.34.36-1.17.58-1.31a2.21,2.21,0,0,0,.37-.59c0-.12.26-.49.37-.76a.86.86,0,0,0,.15-.48.25.25,0,0,0-.29-.25,3.45,3.45,0,0,0-1.13.47c-.37.24-.81.43-1.08.61s-1.39.81-1.65,1-.94.6-1.16.71l-1.88,1.07a1.21,1.21,0,0,1-.43.22.41.41,0,0,1-.4-.22c0-.11.12-.18.34-.32a1.15,1.15,0,0,1,.29-.21c.28-.06.64-.27.65-.36a5.11,5.11,0,0,1,1-.66,15,15,0,0,0,1.62-1c.35-.21.48-.11.74-.36a14.92,14.92,0,0,1,1.45-1c.89-.56,1.35-.78,1.51-.92a3.2,3.2,0,0,1,1.54-.68,1.69,1.69,0,0,1,1,.2.93.93,0,0,1,.5.84c.07.6-.67,1.29-.63,1.57-.2.29-.21.52-.43.83a2.88,2.88,0,0,0-.58,1,4.66,4.66,0,0,0-.26,1.9c0,.34.52.49.75.47s.43,0,.63,0a1.1,1.1,0,0,0,.5-.17c.22-.09.77-.32.93-.42a3.71,3.71,0,0,0,1-.41c.29-.17.67-.13.94-.36s1-.48,1.14-.61a4.92,4.92,0,0,1,.69-.34c.16-.1.08-.07.4-.3.19-.08.42-.31.75-.52a1.11,1.11,0,0,1,.41-.19.31.31,0,0,1,.34.25.25.25,0,0,1-.09.22,8.38,8.38,0,0,0-.93.7c-.37.36-.8.32-1.23.66a2.82,2.82,0,0,1-.68.36c-.35.18-.66.25-.74.31-.12.28-1.07.5-1.4.68C168.42,110.68,167.73,110.7,167.58,110.89Zm2.18-13.28a.69.69,0,0,1-.19.66c-.27.14-.47.22-.71.36a2.56,2.56,0,0,1-.64.22.86.86,0,0,1-.73-.36,1.3,1.3,0,0,1,.13-.67c.07-.16.14-.31.3-.35.37-.13.62-.45,1-.49A.68.68,0,0,1,169.76,97.61Z"/><path class="cls-3" d="M178.51,104.76a8.55,8.55,0,0,0-1.22.8,6.75,6.75,0,0,1-1.19.7c-.16.08-.89.59-1.13.73l-.7.43a2,2,0,0,1-.44.22c-.17,0-.38-.08-.4-.19s.12-.24.34-.35a.6.6,0,0,1,.27-.21,1.39,1.39,0,0,0,.68-.36,6.43,6.43,0,0,1,1.05-.63,6.13,6.13,0,0,1,1-.69c.21-.11.28-.26.55-.47a2.18,2.18,0,0,0,.68-.42,5.73,5.73,0,0,1,1.2-.88,3.18,3.18,0,0,1,.37-.27,1.8,1.8,0,0,0,.57-.58c.09,0,.35-.24,1.65-1.25a8.19,8.19,0,0,0,.78-.78,3.08,3.08,0,0,1,1.36-.55,1.44,1.44,0,0,1,1.36.6,1.55,1.55,0,0,1,.24.87,2.5,2.5,0,0,1-.15,1.28c-.16.37,0,.79-.24,1.16a2.26,2.26,0,0,0-.17.88c0,.09,0,.14.07.14.26,0,.2-.08.57-.41.57-.55.92-1,1.2-1.09s.29-.29.45-.42a4.89,4.89,0,0,1,.79-.69,6.93,6.93,0,0,1,1.35-.84,2.86,2.86,0,0,1,.92-.31,2.12,2.12,0,0,1,.37,0,1.32,1.32,0,0,1,1.08.58,9.71,9.71,0,0,1,.67,1.37c.07.45.71,1,.85,1.43a4.35,4.35,0,0,0,1,1.31,2.79,2.79,0,0,0,1.77.35,4.65,4.65,0,0,0,1.52-.28,10.56,10.56,0,0,0,1.16-.5,6.54,6.54,0,0,0,1.09-.61.86.86,0,0,0,.4-.25c.32,0,.51-.4.91-.47a.26.26,0,0,1,.31.23c0,.11-.07.18-.07.2l-1.1.73c-.4.3-.8.35-1.28.69a2.49,2.49,0,0,1-.72.28,5.73,5.73,0,0,1-1,.4,5.34,5.34,0,0,1-1.23.3,15.31,15.31,0,0,1-2.33.09c-.4,0-.42-.13-.95-.22s-.46-.29-.95-.5-.36-.19-.77-.72a3.66,3.66,0,0,1-.7-1.19c-.17-.51-.23-.79-.33-1.09-.13-.45-.21-.9-.64-.86a2.19,2.19,0,0,0-.58.21,2.89,2.89,0,0,0-.66.56,5.21,5.21,0,0,1-1,.84c-.46.31-.51.4-.65.65s-.77.6-1.17,1a2.76,2.76,0,0,0-.73.89,14.34,14.34,0,0,1-.83,1.44c-.14.25-.44.92-.87,1-.26,0-.44-.07-.71-.42a1,1,0,0,1-.23-.49,2.59,2.59,0,0,1,0-.41,11.64,11.64,0,0,1,.38-1.31,4.66,4.66,0,0,0,.21-1,4.43,4.43,0,0,1,.37-1.1,10.59,10.59,0,0,0,.33-1.45,1.06,1.06,0,0,0,0-.35,1.93,1.93,0,0,0-.06-.34.55.55,0,0,0-.55-.23,2.13,2.13,0,0,0-.63.33,27.05,27.05,0,0,1-2.43,1.71A7.37,7.37,0,0,0,178.51,104.76Z"/><path class="cls-3" d="M212.8,106a1.67,1.67,0,0,1,.14.51,7.24,7.24,0,0,1-.05,1.67c0,.5-.56,2.78-.95,2.91s-.18.45-.43.79a4.41,4.41,0,0,1-1,1.18c-.15.22-.33.64-.72.77s-.75.52-1.11.64a6.58,6.58,0,0,1-1.6.44,2,2,0,0,1-1.66-.89,4.14,4.14,0,0,1-.14-.56,1.37,1.37,0,0,1,.1-.59,3.27,3.27,0,0,1,.82-1.24c.23-.29.49-.78.69-.86s.64-.73.93-.91.53-.69,1-1.11a11.55,11.55,0,0,1,1-.92c.35-.21.62-.64.92-.79s.18-.2.31-.3a5.2,5.2,0,0,0-1.18-1.8,3.36,3.36,0,0,0-1.08-1c-.36-.13-.81-.49-.84-.77s.25-.38.71-.63a5,5,0,0,0,.92-.62c.2-.28.36-.64.54-.84s.2-.51.55-1c.15-.24.22-.4.2-.51a.44.44,0,0,0-.44-.33c-.11,0-.27.12-.5.17a9.75,9.75,0,0,0-1.12.56,17.09,17.09,0,0,0-2.57,1.58c-.29.23-1.38.81-1.64,1s-1,.6-1.17.71l-1.87,1.07a1.12,1.12,0,0,1-.44.22.41.41,0,0,1-.4-.22c0-.11.13-.18.34-.32a1.18,1.18,0,0,1,.3-.21,1.18,1.18,0,0,0,.65-.36,4.83,4.83,0,0,1,1-.66l.81-.49a3.89,3.89,0,0,0,.81-.49c.38-.16.48-.11.74-.37l1.2-.83a4.84,4.84,0,0,1,.73-.51c.32-.18.78-.46,1-.63a10.35,10.35,0,0,1,1.37-.73,5.52,5.52,0,0,1,1.18-.53,1.84,1.84,0,0,1,1.19.33,1.51,1.51,0,0,1,.51.93,1.3,1.3,0,0,1-.06.58c-.15.48-.7.94-.92,1.28a13.71,13.71,0,0,1-1.55,1.12c-.22.14-.5.23-.48.43s.74.38,1.15.68.9.37,1.28.9a3.72,3.72,0,0,1,.63,1.06.4.4,0,0,0,.19-.14c.55-.52.67-.45,1.17-.91.13-.15,1.16-.7,1.29-.83a4.88,4.88,0,0,1,.69-.33c.22-.11,0-.06.43-.31a3.93,3.93,0,0,0,.75-.52.84.84,0,0,1,.38-.18.32.32,0,0,1,.24.06.38.38,0,0,1,.11.19.26.26,0,0,1-.1.21c-.1.1-.53.35-1,.71s-.8.32-1.19.65a7,7,0,0,1-.79.44,3.4,3.4,0,0,0-.88.67A11.87,11.87,0,0,1,212.8,106Zm-1.66,1.42a18.67,18.67,0,0,0-1.52,1.41c-.31.32-.52.52-.7.74s-.48.4-.6.59a14.78,14.78,0,0,1-1.11,1.21,3.89,3.89,0,0,0-.68.92,2.39,2.39,0,0,0-.25,1.12.73.73,0,0,0,.57.72.5.5,0,0,0,.17,0c.2,0,.43-.11.59-.15a3.17,3.17,0,0,0,.91-.39,5.51,5.51,0,0,0,1-1c.46-.48.25-.57.57-1.07a7.94,7.94,0,0,0,.58-1.07c.23-.46,0-.87.38-2A3.21,3.21,0,0,0,211.14,107.38Z"/><path class="cls-3" d="M218,102.53a2.58,2.58,0,0,1-.44.22c-.2,0-.41-.07-.43-.21s.18-.19.37-.33.19-.13.3-.2a1.48,1.48,0,0,0,.65-.36,4,4,0,0,1,1.13-.73,12.48,12.48,0,0,0,1.52-.92c.32-.21.45-.11.74-.37a8.25,8.25,0,0,0,.84-.44c.57-.32.65-.39.81-.49A28.45,28.45,0,0,1,226,97.36c.43,0,.8-.61,1.31-.67.32,0,.57-.35.94-.39.11,0,.32,0,.46,0s.14,0,.16-.1.47-.17.84-.21a1.79,1.79,0,0,1,1.14.34,1.82,1.82,0,0,1,.73,1.16,1.34,1.34,0,0,1-.12,1c-.14.3-.39.65-.68.68a.33.33,0,0,1-.32-.34,2,2,0,0,1,.39-.91.57.57,0,0,0,0-.26.85.85,0,0,0-.37-.68,1.17,1.17,0,0,0-.85-.2l-.29.06a7.3,7.3,0,0,0-1.36.7c-.68.42-1.06.9-1.63,1.22a6.87,6.87,0,0,0-1.61,1.65,5.93,5.93,0,0,0-.75,1.32,3.37,3.37,0,0,0-.49,1.55,1.28,1.28,0,0,1,0,.21c0,.37.26.46.51.43a4.82,4.82,0,0,0,1.29-.92c.3-.35.78-.75,1.19-1.23a9,9,0,0,0,.53-.95,2,2,0,0,1,1.2-.91,2.11,2.11,0,0,1,.74-.34.39.39,0,0,1,.44.36.25.25,0,0,1,0,.17,1.63,1.63,0,0,0,0,.32c0,.2.07.34.09.53a3.67,3.67,0,0,0,.64,1.43,3.26,3.26,0,0,0,.85.34,4.48,4.48,0,0,0,1.35,0,3,3,0,0,0,1.24-.31c.32-.24.68-.16,1-.39a7.92,7.92,0,0,1,1.12-.59,4.42,4.42,0,0,1,.7-.39c.24-.17.47-.26.73-.46a3.42,3.42,0,0,1,.46-.34A.78.78,0,0,1,238,100a.35.35,0,0,1,.24.06.18.18,0,0,1,.13.19,1.64,1.64,0,0,1-.22.31c-.29.23-.6.35-.89.56a13.76,13.76,0,0,0-1.22.74,1.58,1.58,0,0,1-.66.33c-.38.21-.63.24-.71.34s-1.1.49-1.4.67a10.36,10.36,0,0,1-2,.48,2,2,0,0,1-.46.08,5.37,5.37,0,0,1-1.62-.05,1.88,1.88,0,0,1-1.15-.54c-.42-.42-.78-.81-.81-.81s-.48.4-.89.59a13.59,13.59,0,0,0-1.43,1.17,7.61,7.61,0,0,1-1.47.79,2.63,2.63,0,0,1-.53.15,1.92,1.92,0,0,1-.64,0,1,1,0,0,1-1.06-1,3.74,3.74,0,0,1,.23-1.58,9.47,9.47,0,0,1,.77-1.18,2.17,2.17,0,0,0,.57-.84,4.51,4.51,0,0,1,1-1.21c-1.28.66-2.41,1.21-2.73,1.45s-.89.56-1.21.77S218.43,102.32,218,102.53Z"/><path class="cls-3" d="M139.44,139.87l-.22-.59a398.66,398.66,0,0,1,101.66-24.15l.07.62A397.92,397.92,0,0,0,139.44,139.87Z"/></g></g></svg>