<svg xmlns="http://www.w3.org/2000/svg" viewBox="0 0 119.4 95.78"><defs><style>.cls-1,.cls-3{fill:#fff;}.cls-1,.cls-2,.cls-4{fill-rule:evenodd;}.cls-2{fill:#68895d;}</style></defs><g id="レイヤー_2" data-name="レイヤー 2"><g id="レイヤー_1-2" data-name="レイヤー 1"><path class="cls-1" d="M10.52,0H93.57a3.24,3.24,0,0,1,3.25,3.25v55h4a3.26,3.26,0,0,1,3.25,3.24v2a3.24,3.24,0,0,1-1,2.3h0a3.23,3.23,0,0,1-2.29,1H3.24a3.23,3.23,0,0,1-2.29-1H1A3.23,3.23,0,0,1,0,63.51v-2a3.24,3.24,0,0,1,.89-2.23L1,59.23a3.23,3.23,0,0,1,2.29-.95h4v-55a3.24,3.24,0,0,1,1-2.3h0A3.25,3.25,0,0,1,10.52,0Z"/><path class="cls-2" d="M3.24,64.91h97.61a1.39,1.39,0,0,0,1-.41h0a1.37,1.37,0,0,0,.41-1v-2a1.35,1.35,0,0,0-.41-1,1.39,1.39,0,0,0-1-.41H3.24a1.39,1.39,0,0,0-1,.41l0,0a1.37,1.37,0,0,0-.38,1v2a1.4,1.4,0,0,0,1.39,1.4Z"/><path class="cls-2" d="M93.57,1.85h-83a1.39,1.39,0,0,0-1,.41h0a1.4,1.4,0,0,0-.41,1v55H95v-55a1.38,1.38,0,0,0-1.39-1.4Z"/><rect class="cls-3" x="13.82" y="6.31" width="76.45" height="47.5"/><path class="cls-4" d="M3.24,64.91h97.61a1.39,1.39,0,0,0,1-.41h0a1.37,1.37,0,0,0,.41-1v-2a1.35,1.35,0,0,0-.41-1,1.39,1.39,0,0,0-1-.41H3.24a1.39,1.39,0,0,0-1,.41l0,0a1.37,1.37,0,0,0-.38,1v2a1.4,1.4,0,0,0,1.39,1.4ZM10.52,0H93.57a3.24,3.24,0,0,1,3.25,3.25v55h4a3.26,3.26,0,0,1,3.25,3.24v2a3.24,3.24,0,0,1-1,2.3h0a3.23,3.23,0,0,1-2.29,1H3.24a3.23,3.23,0,0,1-2.29-1H1A3.23,3.23,0,0,1,0,63.51v-2a3.24,3.24,0,0,1,.89-2.23L1,59.23a3.23,3.23,0,0,1,2.29-.95h4v-55a3.24,3.24,0,0,1,1-2.3h0A3.25,3.25,0,0,1,10.52,0ZM93.57,1.85h-83a1.39,1.39,0,0,0-1,.41h0a1.4,1.4,0,0,0-.41,1v55H95v-55a1.38,1.38,0,0,0-1.39-1.4ZM36.42,63.29a.93.93,0,0,1,0-1.85H67.05a.93.93,0,1,1,0,1.85ZM12.9,4.46a.93.93,0,0,0-.93.93V54.74a.93.93,0,0,0,.93.93H91.2a.93.93,0,0,0,.93-.93V5.39a.93.93,0,0,0-.93-.93ZM90.27,6.31H13.82v47.5H90.27Z"/><path class="cls-2" d="M114.92,33.61H84.64a3,3,0,0,0-3,3V91.3a3,3,0,0,0,.87,2.11h0a3,3,0,0,0,2.11.88h30.28a3,3,0,0,0,3-3V36.59a3,3,0,0,0-.87-2.11h0A3,3,0,0,0,114.92,33.61Z"/><polygon class="cls-1" points="114.12 39.67 85.45 39.67 85.45 85.25 114.12 85.25 114.12 39.67 114.12 39.67"/><path class="cls-4" d="M84.64,32.12h30.28a4.44,4.44,0,0,1,3.16,1.31h0a4.46,4.46,0,0,1,1.31,3.16V91.3a4.47,4.47,0,0,1-4.48,4.48H84.64a4.46,4.46,0,0,1-3.16-1.31h0a4.49,4.49,0,0,1-1.3-3.16V36.59a4.47,4.47,0,0,1,4.47-4.47ZM95.73,90.86h8.12a.75.75,0,0,0,.75-.74.76.76,0,0,0-.75-.75H95.73a.75.75,0,0,0-.74.75.74.74,0,0,0,.74.74Zm-11-52.68a.74.74,0,0,0-.75.74V86a.75.75,0,0,0,.75.74h30.15a.75.75,0,0,0,.75-.74V38.92a.75.75,0,0,0-.75-.74Zm29.41,1.49H85.45V85.25h28.67V39.67Zm.8-6.06H84.64a3,3,0,0,0-3,3V91.3a3,3,0,0,0,.87,2.11h0a3,3,0,0,0,2.11.88h30.28a3,3,0,0,0,3-3V36.59a3,3,0,0,0-.87-2.11h0A3,3,0,0,0,114.92,33.61Z"/></g></g></svg>