<svg xmlns="http://www.w3.org/2000/svg" viewBox="0 0 30.56 39"><defs><style>.cls-1{fill:none;stroke:#666;stroke-miterlimit:10;}</style></defs><g id="レイヤー_2" data-name="レイヤー 2"><g id="レイヤー_1-2" data-name="レイヤー 1"><path class="cls-1" d="M27.26,8.66c-1.59-.61-3.47-3-3.37-4.12.06-.64.51-1.23.51-1.93a2.11,2.11,0,0,0-4.22,0c0,.7.45,1.29.51,1.93.1,1.14-1.78,3.51-3.36,4.12"/><line class="cls-1" x1="22.94" y1="18.54" x2="26.24" y2="18.54"/><line class="cls-1" x1="22.94" y1="22.5" x2="26.24" y2="22.5"/><line class="cls-1" x1="22.94" y1="26.45" x2="26.24" y2="26.45"/><line class="cls-1" x1="22.94" y1="30.4" x2="26.24" y2="30.4"/><line class="cls-1" x1="22.94" y1="34.35" x2="26.24" y2="34.35"/><rect class="cls-1" x="15.29" y="8.75" width="14" height="4.46" rx="0.93"/><path class="cls-1" d="M11,24.58l.51-1.06a1.67,1.67,0,0,1,1.21-.91A3.49,3.49,0,1,0,9,20.83a1.67,1.67,0,0,1,0,1.51L8.5,23.4"/><path class="cls-1" d="M16.7,29.45A58.51,58.51,0,0,1,1.12,22a1.51,1.51,0,0,1-.35-2.1l0,0a1.42,1.42,0,0,1,2.14-.35,27.13,27.13,0,0,0,14.55,7,1.41,1.41,0,0,1,1.07,1.88s0,0,0,0A1.5,1.5,0,0,1,16.7,29.45Z"/><path class="cls-1" d="M4.34,24.59c-.23,2.8,1.19,3.75,2.92,4.58s3.36,1.34,5.4-.6"/><path class="cls-1" d="M5.27,27.86a5,5,0,1,0,4.26,2M4.71,34.51a1.85,1.85,0,1,1,2.47-.87A1.85,1.85,0,0,1,4.71,34.51Z"/><path class="cls-1" d="M15,31.47c0,.18-.07.35-.1.53-.22,1.19-.86,4.52.29,5.43,1.88,1.47,4.87,1,7.1,1s5.22.47,7.1-1c1.16-.91.51-4.24.3-5.43a45.1,45.1,0,0,1-.9-6c-.14-3.25,1.36-6.74,1.12-9s-2.53-3.74-2.53-3.74H17.2a7.46,7.46,0,0,0-1.4,1.29"/></g></g></svg>