<svg xmlns="http://www.w3.org/2000/svg" viewBox="0 0 43.34 36.12"><defs><style>.cls-1{fill:#666;fill-rule:evenodd;}</style></defs><g id="レイヤー_2" data-name="レイヤー 2"><g id="レイヤー_1-2" data-name="レイヤー 1"><path class="cls-1" d="M14.65,25.3l-1-1a2.66,2.66,0,0,1-.61-1,2.62,2.62,0,0,1-.12-1.12,2.47,2.47,0,0,1,.36-1.08,2.55,2.55,0,0,1,.8-.8A14.19,14.19,0,0,1,21.75,18a14,14,0,0,1,7.67,2.31,2.54,2.54,0,0,1,1.15,1.88,2.62,2.62,0,0,1-.13,1.12,2.5,2.5,0,0,1-.61.95l-1,1a2.53,2.53,0,0,1-1.49.74,2.61,2.61,0,0,1-1.62-.35,7.77,7.77,0,0,0-4-1.1,7.91,7.91,0,0,0-4,1.08,2.54,2.54,0,0,1-1.62.34,2.57,2.57,0,0,1-1.48-.73Zm7.09,2.16a4.34,4.34,0,1,1-3.06,1.27,4.31,4.31,0,0,1,3.06-1.27Zm2.46,1.87a3.48,3.48,0,1,0,1,2.46,3.47,3.47,0,0,0-1-2.46Zm-10-5.65,1,1a1.73,1.73,0,0,0,1,.49A1.68,1.68,0,0,0,17.32,25a8.73,8.73,0,0,1,4.41-1.2A8.59,8.59,0,0,1,26.13,25a1.76,1.76,0,0,0,1.09.23,1.73,1.73,0,0,0,1-.49l1-1a1.67,1.67,0,0,0,.41-.63,1.72,1.72,0,0,0,.08-.75,1.85,1.85,0,0,0-.23-.72,1.82,1.82,0,0,0-.53-.54,13.15,13.15,0,0,0-14.44,0,1.74,1.74,0,0,0-.54.54,1.57,1.57,0,0,0-.23.72,1.71,1.71,0,0,0,.08.75,1.67,1.67,0,0,0,.41.63Zm23.89-11a25.51,25.51,0,0,0-32.95-.13,2.49,2.49,0,0,1-1.75.6,2.57,2.57,0,0,1-1.7-.75l-1-1a2.46,2.46,0,0,1-.58-.87,2.56,2.56,0,0,1-.17-1,2.64,2.64,0,0,1,.25-1A2.44,2.44,0,0,1,.9,7.65a31.81,31.81,0,0,1,41.56.15l0,0a2.5,2.5,0,0,1,.62.8,2.83,2.83,0,0,1,.24,1,2.64,2.64,0,0,1-.17,1,2.42,2.42,0,0,1-.58.87L42.1,12l-.5.5a2.54,2.54,0,0,1-3.47.13ZM21.66,5.71a26.27,26.27,0,0,1,17,6.3,1.7,1.7,0,0,0,1.18.42,1.77,1.77,0,0,0,1.14-.5l.5-.5.49-.49a1.76,1.76,0,0,0,.38-.58,1.73,1.73,0,0,0,.12-.69A1.83,1.83,0,0,0,42.33,9a1.61,1.61,0,0,0-.41-.53l0,0A31,31,0,0,0,1.45,8.29,1.59,1.59,0,0,0,1,8.84a1.75,1.75,0,0,0-.17.68,1.81,1.81,0,0,0,.11.7,1.65,1.65,0,0,0,.39.58l1,1a1.71,1.71,0,0,0,2.31.1,26.15,26.15,0,0,1,17-6.17ZM31.93,19.06a2.53,2.53,0,0,0,1.71.52h0a2.58,2.58,0,0,0,1.64-.74l1-1h0a2.51,2.51,0,0,0,.59-.9A2.48,2.48,0,0,0,37,15.88a2.54,2.54,0,0,0-.27-1h0a2.7,2.7,0,0,0-.69-.82A23,23,0,0,0,7.4,14a2.7,2.7,0,0,0-.69.82,2.4,2.4,0,0,0-.28,1,2.51,2.51,0,0,0,.15,1.06,2.56,2.56,0,0,0,.59.9l1,1a2.54,2.54,0,0,0,1.64.75A2.57,2.57,0,0,0,11.52,19a16.82,16.82,0,0,1,20.41,0Zm-10.2-4.31a17.65,17.65,0,0,1,10.72,3.63,1.68,1.68,0,0,0,1.14.35h0a1.66,1.66,0,0,0,1.09-.49l1-1h0a1.71,1.71,0,0,0,.5-1.31,1.77,1.77,0,0,0-.19-.69h0a1.83,1.83,0,0,0-.46-.55,22.14,22.14,0,0,0-27.61,0,1.64,1.64,0,0,0-.47.55,1.57,1.57,0,0,0-.18.69,1.66,1.66,0,0,0,.1.71,1.63,1.63,0,0,0,.39.6l1,1a1.77,1.77,0,0,0,1.09.5A1.69,1.69,0,0,0,11,18.36,17.63,17.63,0,0,1,21.73,14.75Z"/></g></g></svg>