<svg xmlns="http://www.w3.org/2000/svg" viewBox="0 0 31.99 42.07"><defs><style>.cls-1{fill:#666;fill-rule:evenodd;}</style></defs><g id="レイヤー_2" data-name="レイヤー 2"><g id="レイヤー_1-2" data-name="レイヤー 1"><path class="cls-1" d="M3.05,0H20.72a.49.49,0,0,1,.38.18L31.81,10.89a.53.53,0,0,1,.18.39V39a3.06,3.06,0,0,1-3,3H3.05a3.08,3.08,0,0,1-2.16-.9A3,3,0,0,1,0,39H0v-36H0A3,3,0,0,1,.89.9,3.08,3.08,0,0,1,3.05,0ZM5.84,26.85H21a.51.51,0,0,0,.51-.51.5.5,0,0,0-.51-.5H5.84a.5.5,0,0,0-.51.5.51.51,0,0,0,.51.51Zm0-5.61H25a.5.5,0,0,0,.51-.5.51.51,0,0,0-.51-.51H5.84a.51.51,0,0,0-.51.51.5.5,0,0,0,.51.5Zm0-5.27H23.59a.51.51,0,0,0,0-1H5.84a.51.51,0,0,0,0,1ZM24.22,28.64a3,3,0,0,0-2.15.89l0,0a3,3,0,0,0,2.18,5.16,3.06,3.06,0,0,0,2.15-.88h0a3,3,0,0,0,0-4.3h0a3,3,0,0,0-2.15-.89Zm-2.87.17,0,0a4.1,4.1,0,0,0-1.16,2.84,4.06,4.06,0,0,0,6.93,2.87h0a4,4,0,0,0,0-5.73h0a4.06,4.06,0,0,0-5.74,0Zm9.62-17H23.26a3,3,0,0,1-2.15-.9h0a3.07,3.07,0,0,1-.89-2.15V1H3.05a2,2,0,0,0-2,2H1V39H1a2,2,0,0,0,2,2H28.93a2,2,0,0,0,2-2V11.79ZM21.23,1.73v7a2,2,0,0,0,.59,1.44h0a2.07,2.07,0,0,0,1.44.59h7Z"/></g></g></svg>