<svg xmlns="http://www.w3.org/2000/svg" viewBox="0 0 70.94 42.16"><defs><style>.cls-1{fill:#666;}</style></defs><g id="レイヤー_2" data-name="レイヤー 2"><g id="レイヤー_1-2" data-name="レイヤー 1"><path class="cls-1" d="M19.62,41.87V28.38a.56.56,0,0,0-.57-.56H5.54a.56.56,0,0,0-.56.56V41.87H0V22.59a.55.55,0,0,0,.1-.22,4.53,4.53,0,0,1,2.54-3.16A.56.56,0,0,0,3,18.7V11.8a.56.56,0,0,0-.42-.54A3.47,3.47,0,0,1,0,7.92V3.58A3.46,3.46,0,0,1,3.46.12H21.14A3.46,3.46,0,0,1,24.6,3.58V7.92a3.47,3.47,0,0,1-2.55,3.34.56.56,0,0,0-.42.54v6.9a.56.56,0,0,0,.33.51,4.58,4.58,0,0,1,2.54,3.16.49.49,0,0,0,.1.22V41.87Zm1.55-14a.57.57,0,0,0-.57.56V40.32a.57.57,0,0,0,.57.56h1.88a.56.56,0,0,0,.56-.56V28.38a.56.56,0,0,0-.56-.56Zm-19.62,0a.57.57,0,0,0-.57.56V40.32a.57.57,0,0,0,.57.56H3.43A.56.56,0,0,0,4,40.32V28.38a.56.56,0,0,0-.56-.56Zm0-4a.57.57,0,0,0-.57.57v1.9a.57.57,0,0,0,.57.56h21.5a.56.56,0,0,0,.56-.56v-1.9a.56.56,0,0,0-.56-.57Zm3-4a3.54,3.54,0,0,0-3.29,2.27.54.54,0,0,0,.06.52.57.57,0,0,0,.46.25H22.85a.59.59,0,0,0,.47-.25.57.57,0,0,0,.06-.52,3.54,3.54,0,0,0-3.29-2.27Zm0-8.4A.57.57,0,0,0,4,12v6.28a.56.56,0,0,0,.57.57H20.08a.57.57,0,0,0,.57-.57V12a.58.58,0,0,0-.57-.57ZM3.46,1.1A2.48,2.48,0,0,0,1,3.58V7.92A2.48,2.48,0,0,0,3.46,10.4H21.14a2.48,2.48,0,0,0,2.47-2.48V3.58A2.48,2.48,0,0,0,21.14,1.1Z"/><path class="cls-1" d="M60.69,42.16a2.33,2.33,0,0,1-2.33-2.33,2.27,2.27,0,0,1,.09-.62.6.6,0,0,0-.1-.5.55.55,0,0,0-.45-.22H43.53a.55.55,0,0,0-.45.22.6.6,0,0,0-.1.5,2.27,2.27,0,0,1,.09.62,2.33,2.33,0,1,1-2.33-2.32H47.8a.57.57,0,0,0,.56-.57V26.63a.56.56,0,0,0-.56-.56H38.71l-7.06-4.72a2.59,2.59,0,0,1-.72-3.61A2.6,2.6,0,0,1,34.54,17l3,2a.56.56,0,0,0,.31.09.63.63,0,0,0,.27-.06.58.58,0,0,0,.3-.5V4.72A4.72,4.72,0,0,1,43.14,0H58.29A4.72,4.72,0,0,1,63,4.72V18.55a.56.56,0,0,0,.3.49.52.52,0,0,0,.27.07.56.56,0,0,0,.31-.09l3-2a2.57,2.57,0,0,1,1.44-.44,2.21,2.21,0,0,1,.51.05,2.59,2.59,0,0,1,2,3.07,2.54,2.54,0,0,1-1.11,1.65l-7.06,4.72H53.63a.56.56,0,0,0-.56.56v4.22a.59.59,0,0,0,.19.43.64.64,0,0,0,.37.13h.08l4.2-.59h2.86v1H57.85l-4.3.61a.57.57,0,0,0-.48.56v4a.57.57,0,0,0,.56.57h7.06a2.33,2.33,0,0,1,0,4.65Zm0-3.67A1.35,1.35,0,1,0,62,39.83,1.34,1.34,0,0,0,60.69,38.49Zm-19.95,0a1.35,1.35,0,0,0,0,2.69,1.35,1.35,0,1,0,0-2.69Zm9.17-12.42a.56.56,0,0,0-.56.56V36.94a.57.57,0,0,0,.56.57h1.61a.58.58,0,0,0,.57-.57V26.63a.57.57,0,0,0-.57-.56ZM33.09,17.56a1.63,1.63,0,0,0-1.35.72,1.65,1.65,0,0,0-.24,1.22,1.64,1.64,0,0,0,.69,1L38.86,25a.62.62,0,0,0,.32.09H62.25a.62.62,0,0,0,.32-.09l6.67-4.46a1.59,1.59,0,0,0,.69-1,1.65,1.65,0,0,0-.24-1.22,1.63,1.63,0,0,0-1.35-.72,1.69,1.69,0,0,0-.9.27l-6,4H40l-6-4A1.6,1.6,0,0,0,33.09,17.56ZM43.14,1A3.75,3.75,0,0,0,39.4,4.72V20a.56.56,0,0,0,.25.47l.5.33a.56.56,0,0,0,.31.09H61a.56.56,0,0,0,.31-.09l.5-.33A.56.56,0,0,0,62,20V4.72A3.75,3.75,0,0,0,58.29,1Z"/><rect class="cls-1" x="45.82" y="9.68" width="0.98" height="2.9"/><rect class="cls-1" x="54.63" y="9.68" width="0.98" height="2.9"/></g></g></svg>