<svg xmlns="http://www.w3.org/2000/svg" viewBox="0 0 30.63 36.7"><defs><style>.cls-1{fill:#666;fill-rule:evenodd;}</style></defs><g id="レイヤー_2" data-name="レイヤー 2"><g id="レイヤー_1-2" data-name="レイヤー 1"><path class="cls-1" d="M28.84,14.23h-27a.76.76,0,0,0-.54.22A.76.76,0,0,0,1,15v6.72a.79.79,0,0,0,.23.55l0,0a.78.78,0,0,0,.52.2H28.84a.75.75,0,0,0,.77-.77V15a.75.75,0,0,0-.77-.76ZM27.79,34.55H24.31A.51.51,0,0,1,23.8,34V30.55a.51.51,0,0,1,.51-.51h3.48a.51.51,0,0,1,.51.51V34a.51.51,0,0,1-.51.52Zm-3-1h2.46V31.06H24.82v2.46Zm3-12.18H24.31a.51.51,0,0,1-.51-.51V17.35a.51.51,0,0,1,.51-.51h3.48a.5.5,0,0,1,.51.51v3.48a.5.5,0,0,1-.51.51Zm-3-1V17.86h2.46v2.46Zm3-12.18H24.31a.51.51,0,0,1-.51-.51V4.15a.51.51,0,0,1,.51-.51h3.48a.5.5,0,0,1,.51.51V7.63a.51.51,0,0,1-.51.51Zm-3-1h2.46V4.66H24.82V7.12Zm-23,6.08H28.84A1.79,1.79,0,0,1,30.63,15v6.72A1.77,1.77,0,0,1,30.11,23h0a1.78,1.78,0,0,1-1.26.52h-27A1.79,1.79,0,0,1,.56,23l0,0A1.81,1.81,0,0,1,0,21.71V15A1.79,1.79,0,0,1,1.79,13.2Zm27.05-2.9a1.83,1.83,0,0,0,1.27-.52h0a1.78,1.78,0,0,0,.52-1.26V1.79A1.78,1.78,0,0,0,30.11.53h0A1.75,1.75,0,0,0,28.84,0h-27A1.79,1.79,0,0,0,0,1.79V8.51A1.79,1.79,0,0,0,.49,9.74l0,0a1.83,1.83,0,0,0,1.27.52Zm-27-1H28.84a.84.84,0,0,0,.55-.22h0a.81.81,0,0,0,.22-.55V1.79a.8.8,0,0,0-.22-.54h0A.79.79,0,0,0,28.84,1h-27A.79.79,0,0,0,1,1.79V8.51a.76.76,0,0,0,.2.52l0,0a.8.8,0,0,0,.54.22ZM28.84,27.42h-27a.79.79,0,0,0-.77.77v6.72a.77.77,0,0,0,.23.55l0,0a.78.78,0,0,0,.52.2H28.84a.78.78,0,0,0,.55-.22.81.81,0,0,0,.22-.55V28.19a.77.77,0,0,0-.77-.77Zm-27-1A1.79,1.79,0,0,0,0,28.19v6.72a1.81,1.81,0,0,0,.52,1.27l0,0a1.75,1.75,0,0,0,1.23.49H28.84a1.78,1.78,0,0,0,1.26-.52h0a1.81,1.81,0,0,0,.52-1.27V28.19a1.79,1.79,0,0,0-1.79-1.79Z"/></g></g></svg>