<svg xmlns="http://www.w3.org/2000/svg" viewBox="0 0 43.37 42.71"><defs><style>.cls-1{fill:#666;fill-rule:evenodd;}.cls-2{fill:none;stroke:#666;stroke-miterlimit:10;}</style></defs><g id="レイヤー_2" data-name="レイヤー 2"><g id="レイヤー_1-2" data-name="レイヤー 1"><path class="cls-1" d="M43.37,26.56V39.68a3,3,0,0,1-.89,2.14h0a3,3,0,0,1-2.14.89H3a3,3,0,0,1-3-3V26.56A3,3,0,0,1,0,26c0-.16.08-.33.13-.5h0l3.46-9.67a3.09,3.09,0,0,1,1.1-1.47,3.12,3.12,0,0,1,1.75-.54H36.89a3.07,3.07,0,0,1,1.74.54,3,3,0,0,1,1.1,1.47l3.46,9.67a2.3,2.3,0,0,1,.13.5h0a3,3,0,0,1,0,.52Zm-1,2.08a2,2,0,0,0-2-2H3a2,2,0,0,0-1.42.59h0A2,2,0,0,0,1,28.64v11a2,2,0,0,0,.59,1.43A2,2,0,0,0,3,41.7H40.34a2,2,0,0,0,1.43-.59h0a2,2,0,0,0,.59-1.43v-11ZM1,26.39a3,3,0,0,1,2-.77H40.34a3,3,0,0,1,2,.76,1.11,1.11,0,0,0,0-.17h0a2.77,2.77,0,0,0-.09-.33L38.78,16.2a1.94,1.94,0,0,0-.73-1,2,2,0,0,0-1.16-.36H6.48a2,2,0,0,0-1.17.36,2.06,2.06,0,0,0-.73,1L1.12,25.88h0a2,2,0,0,0-.09.33c0,.06,0,.12,0,.18ZM33.54,36h3.67V32.33H33.54V36Zm4.18,1a.51.51,0,0,0,.5-.51V31.83a.51.51,0,0,0-.5-.51H33a.51.51,0,0,0-.51.51V36.5A.51.51,0,0,0,33,37ZM5.16,34.67H26.62a.5.5,0,0,0,.5-.51.5.5,0,0,0-.5-.5H5.16a.5.5,0,0,0-.5.5A.51.51,0,0,0,5.16,34.67Z"/><line class="cls-2" x1="36.89" y1="13.86" x2="41.25" y2="0.15"/><line class="cls-2" x1="29.96" y1="13.86" x2="25.59" y2="0.15"/></g></g></svg>