<svg xmlns="http://www.w3.org/2000/svg" viewBox="0 0 50.15 46.65"><defs><style>.cls-1{fill:#666;fill-rule:evenodd;}</style></defs><g id="レイヤー_2" data-name="レイヤー 2"><g id="レイヤー_1-2" data-name="レイヤー 1"><path class="cls-1" d="M27.84,11.08a9.23,9.23,0,0,1,6.46,8.81.56.56,0,0,1-.55.56H16.4a.56.56,0,0,1-.56-.56,9.25,9.25,0,0,1,6.47-8.81,5.69,5.69,0,0,1-1.4-1,5.89,5.89,0,1,1,8.32,0h0a5.83,5.83,0,0,1-1.39,1Zm-3.32,11a.56.56,0,1,1,1.11,0v3.74a4.82,4.82,0,0,1,2.81,1.36h0a4.78,4.78,0,0,1,1.39,3.37A4.68,4.68,0,0,1,29,33.26l3,3a.56.56,0,1,1-.79.78l-2.95-3a4.77,4.77,0,0,1-6.3.08l-2.89,2.9a.57.57,0,0,1-.79,0,.56.56,0,0,1,0-.79l2.93-2.93a4.76,4.76,0,0,1,3.3-7.52V22.1ZM22.35,33h0l0,.05.09.09h0a3.65,3.65,0,1,0,2.59-6.23h0a3.65,3.65,0,0,0-3.65,3.65A3.6,3.6,0,0,0,22.35,33ZM9.22,26.2A5.89,5.89,0,0,0,5.06,36.25a5.69,5.69,0,0,0,1.4,1A9.26,9.26,0,0,0,0,46.09a.56.56,0,0,0,.56.56H17.9a.56.56,0,0,0,.56-.56A9.28,9.28,0,0,0,12,37.28a5.69,5.69,0,0,0,1.4-1h0a5.89,5.89,0,0,0-4.17-10Zm3.38,2.51a4.78,4.78,0,0,1,0,6.76h0a4.71,4.71,0,0,1-3.37,1.4h0a4.78,4.78,0,1,1,3.38-8.15ZM15,40.35a8.17,8.17,0,0,1,2.36,5.19H1.13A8.12,8.12,0,0,1,9.22,38h0A8.09,8.09,0,0,1,15,40.35Zm26-14.15a5.89,5.89,0,0,0-2.77,11.08,9.29,9.29,0,0,0-6.46,8.81.56.56,0,0,0,.56.56H49.6a.56.56,0,0,0,.55-.56,9.26,9.26,0,0,0-6.46-8.81,5.83,5.83,0,0,0,1.39-1h0a5.89,5.89,0,0,0-4.16-10Zm3.38,2.51a4.8,4.8,0,0,1,0,6.76h0a4.75,4.75,0,0,1-3.38,1.4h0a4.78,4.78,0,1,1,3.38-8.15Zm2.36,11.64A8.07,8.07,0,0,1,49,45.54H32.82A8.12,8.12,0,0,1,40.92,38h0a8.08,8.08,0,0,1,5.74,2.38ZM25.07,10.66h0a4.75,4.75,0,0,0,3.38-1.4h0a4.79,4.79,0,0,0,0-6.75,4.78,4.78,0,1,0-3.38,8.15Zm5.74,3.49a8.08,8.08,0,0,0-5.74-2.38h0A8.12,8.12,0,0,0,17,19.34h16.2A8,8,0,0,0,30.81,14.15Z"/></g></g></svg>