<svg xmlns="http://www.w3.org/2000/svg" viewBox="0 0 33.48 42.14"><defs><style>.cls-1{fill:#666;fill-rule:evenodd;}</style></defs><g id="レイヤー_2" data-name="レイヤー 2"><g id="レイヤー_1-2" data-name="レイヤー 1"><path class="cls-1" d="M2.29,23.46h7.84V14.24H2.29v9.22Zm3.92,4.63A1.91,1.91,0,0,1,8.11,30a1.9,1.9,0,0,1-1.49,1.85v8.52l5-7.54-1.39-8.55h-8L.84,32.83l5,7.54V31.85a1.9,1.9,0,0,1,.41-3.76ZM7,29.23a1.08,1.08,0,1,1-1.52,0,1.06,1.06,0,0,1,1.52,0Zm-.4,12.7a.41.41,0,0,1-.72,0L.07,33.14A.38.38,0,0,1,0,32.85H0l1.47-9V2.46A2.46,2.46,0,0,1,2.19.73h0A2.46,2.46,0,0,1,3.93,0H8.49A2.48,2.48,0,0,1,11,2.46V23.85l1.46,9a.4.4,0,0,1-.07.31L6.57,41.93Zm3.56-28.51v-11A1.68,1.68,0,0,0,9.65,1.3,1.63,1.63,0,0,0,8.49.82H3.93a1.63,1.63,0,0,0-1.16.48h0a1.68,1.68,0,0,0-.48,1.16v11Z"/><path class="cls-1" d="M23.94,29.8V2h-1a1.65,1.65,0,0,0-1.16.47h0a1.6,1.6,0,0,0-.48,1.16V28.85l2.68.95ZM24.76,2V29.77L29.11,28l.05,0V2ZM30,2v26h0l2.66.68v-25h0a1.63,1.63,0,0,0-.48-1.16A1.66,1.66,0,0,0,31,1.94H30Zm3.5,27.11a.37.37,0,0,1,0,.18.48.48,0,0,1-.08.16l-5.16,9.7a1.42,1.42,0,0,1-1.27.76h0a1.42,1.42,0,0,1-1.27-.76L20.5,29.36a.43.43,0,0,1-.06-.22h0V3.59a2.42,2.42,0,0,1,.72-1.74h0a2.44,2.44,0,0,1,1.73-.72H31a2.46,2.46,0,0,1,2.46,2.45h0V29.06Zm-1,.35-2.74,5.15L27.6,33.7h0a.39.39,0,0,0-.42.07l-1.63,1.44-1.24-.45L21.7,29.88l2.15.75a1.32,1.32,0,0,0,1,0h0l4.55-1.86a.77.77,0,0,1,.19-.05l.2,0,2.66.69Zm-7.58,6.43,1.54,2.88a.6.6,0,0,0,.54.33h0a.57.57,0,0,0,.32-.09.66.66,0,0,0,.23-.24l1.82-3.43-1.8-.74L25.94,36a.42.42,0,0,1-.43.1Z"/></g></g></svg>