<svg xmlns="http://www.w3.org/2000/svg" viewBox="0 0 115.47 77.67"><defs><style>.cls-1{fill:#68895d;}.cls-1,.cls-2{fill-rule:evenodd;}</style></defs><g id="レイヤー_2" data-name="レイヤー 2"><g id="レイヤー_1-2" data-name="レイヤー 1"><polygon class="cls-1" points="18.32 2.5 2.5 2.5 2.5 50.09 18.32 50.09 18.32 48.46 18.32 3.17 18.32 2.5 18.32 2.5"/><polygon class="cls-1" points="97.15 46.49 97.14 46.52 97.14 50.09 112.98 50.09 112.98 2.5 97.14 2.5 97.14 3.14 97.15 3.17 97.15 46.49"/><path class="cls-2" d="M38.3,26l0,0,0,0Zm-5,34.22L39.53,49.7l-1.35-.5-1.42-.53a1.9,1.9,0,0,0-1.22,0h0a1.84,1.84,0,0,0-.86.56l-.71,1-4.32,6.39a1.67,1.67,0,0,0,0,.77,1.83,1.83,0,0,0,.31.71,1.92,1.92,0,0,0,.58.51l2.73,1.58ZM95.9,0h18.33a1.25,1.25,0,0,1,1.24,1.25V51.33a1.25,1.25,0,0,1-1.24,1.25H95.9a1.24,1.24,0,0,1-1.24-1.25V49.14L89,52.89l0,0a4.09,4.09,0,0,1,.46,1.31,4.42,4.42,0,0,1-.29,2.42l-.39.93a30.17,30.17,0,0,1-3.89,6.81,29.77,29.77,0,0,1-5.56,5.54L70.5,76.74a4.28,4.28,0,0,1-2.4.92,4.41,4.41,0,0,1-2.5-.61l-8.13-4.82a4.53,4.53,0,0,1-1,1.08l0,0a4.21,4.21,0,0,1-1.53.75,4.34,4.34,0,0,1-1.71.13,4.19,4.19,0,0,1-1.61-.56h0L29.31,60.78A4.17,4.17,0,0,1,28,59.59,4.31,4.31,0,0,1,27.23,58a4.21,4.21,0,0,1,0-1.8,4.67,4.67,0,0,1,.18-.64l-6.56-5.84v1.66a1.25,1.25,0,0,1-1.25,1.25H1.24A1.25,1.25,0,0,1,0,51.33V1.25A1.25,1.25,0,0,1,1.24,0H19.57a1.25,1.25,0,0,1,1.25,1.25v1l9.11,2.87a4.33,4.33,0,0,1,2.56,2.15,4.42,4.42,0,0,1,.3,3.32l-.07.2,10.79,1h.09l20.94,2.49c1.71-.5,3.48-1,5.38-1.37L83.13,9.91a4.35,4.35,0,0,1,3-5l8.55-2.69v-1A1.24,1.24,0,0,1,95.9,0ZM87.38,51a.87.87,0,0,1,.23-.19l6.61-4.38a1.1,1.1,0,0,1,.31-.15l-10.69-34-13.38,3c-1.89.43-3.67.88-5.42,1.4h0l-.07,0h0l-1.24.38c-2.17.68-4.3,1.46-6.56,2.39l-16.05,6.6.65,1.38A6.2,6.2,0,0,0,49,30.82L64.41,26.7a1.26,1.26,0,0,1,1.27.39L87.38,51Zm-45.49-.42.91.39A24.44,24.44,0,0,1,45,52.1c.71.39,1.41.83,2.11,1.31L40.43,64.34l-5-2.88,6.45-10.87Zm.7,15,5.26,3,6-10-4.76-3.75L42.59,65.58ZM50,69.86l2.86,1.65h0a1.91,1.91,0,0,0,.7.25A1.94,1.94,0,0,0,55,71.37l0,0a1.83,1.83,0,0,0,.44-.54l3.51-6.17a1.87,1.87,0,0,0,.21-1.28,1.84,1.84,0,0,0-.68-1.11l-2.6-2L50,69.86Zm-28.61-23,7.33,6.52,3.81-5.43h0a4.34,4.34,0,0,1,2.27-1.67h0a4.34,4.34,0,0,1,2.82.09L41.94,48a30.55,30.55,0,0,1,4.31,2A29.34,29.34,0,0,1,49.43,52h0a1.16,1.16,0,0,1,.21.16l.52.4L60,60.29a4.12,4.12,0,0,1,1.12,1.31l13.14,9.08L77.74,68c.45-.35.87-.69,1.28-1L60.26,52.58a1.25,1.25,0,0,1,1.51-2L80.86,65.19a27.11,27.11,0,0,0,2-2.31c.51-.68,1-1.39,1.45-2.12L67.54,45.81A1.24,1.24,0,1,1,69.2,44L85.55,58.53c.31-.61.6-1.25.88-1.91l.38-.93a1.81,1.81,0,0,0,.13-1,1.91,1.91,0,0,0-.47-.94L64.32,29.3,49.64,33.23a8.67,8.67,0,0,1-10.15-4.71L38.3,26l0-.1a1.22,1.22,0,0,1,.68-1.62l17.24-7.08c1-.4,1.89-.77,2.81-1.11L43.3,14.21h0L32,13.23h0L21.39,46.84Zm40.11,18a4,4,0,0,1-.41,1L58.7,70.07l8.17,4.84a1.9,1.9,0,0,0,1.07.27,1.86,1.86,0,0,0,1-.4l3.22-2.5L61.5,64.88ZM20.82,40.35l9.59-30.5A1.88,1.88,0,0,0,29.19,7.5L20.82,4.87V40.35ZM18.32,2.5H2.5V50.09H18.32V2.5ZM94.66,38.38V4.87L86.85,7.32a1.86,1.86,0,0,0-1.22,2.35l9,28.71Zm2.49,8.12v3.59H113V2.5H97.14v44Z"/></g></g></svg>