<svg xmlns="http://www.w3.org/2000/svg" viewBox="0 0 46.62 37.14"><defs><style>.cls-1{fill:none;}.cls-1,.cls-2{stroke:#666;stroke-miterlimit:10;}.cls-2{fill:#fff;}</style></defs><g id="レイヤー_2" data-name="レイヤー 2"><g id="レイヤー_1-2" data-name="レイヤー 1"><path class="cls-1" d="M29.11,4.21,14.75,8.51,14,5.88,28.32,1.57A1.37,1.37,0,0,1,30,2.49h0A1.38,1.38,0,0,1,29.11,4.21Z"/><path class="cls-1" d="M45.14,14.26,30.79,18.57,30,15.93l14.36-4.31a1.39,1.39,0,0,1,1.72.92h0A1.38,1.38,0,0,1,45.14,14.26Z"/><path class="cls-1" d="M45.14,19.84,30.79,24.15,30,21.52l14.36-4.31a1.38,1.38,0,0,1,1.72.92h0A1.37,1.37,0,0,1,45.14,19.84Z"/><path class="cls-1" d="M45.14,25.43,30.79,29.74,30,27.1l14.36-4.31a1.39,1.39,0,0,1,1.72.92h0A1.38,1.38,0,0,1,45.14,25.43Z"/><path class="cls-2" d="M15.25,5.36V1.87A1.38,1.38,0,0,0,13.87.5h-12A1.38,1.38,0,0,0,.5,1.87V36.64H32.59V8.92A1.39,1.39,0,0,0,31.4,7.55Z"/><line class="cls-1" x1="0.5" y1="13.14" x2="31.78" y2="13.14"/><line class="cls-1" x1="1.47" y1="27.89" x2="31.78" y2="27.89"/><path class="cls-1" d="M21.13,27.89a4.77,4.77,0,0,1-9,0Z"/></g></g></svg>