<svg xmlns="http://www.w3.org/2000/svg" viewBox="0 0 63.72 36.25"><defs><style>.cls-1{fill:#666;}</style></defs><g id="レイヤー_2" data-name="レイヤー 2"><g id="レイヤー_1-2" data-name="レイヤー 1"><path class="cls-1" d="M60.59,36.25V20.12a.25.25,0,0,0-.25-.25H50.41a.25.25,0,0,0-.25.25V36.25H47V19a.23.23,0,0,0,.06-.12,2.89,2.89,0,0,1,2.82-2.27H60.34a.25.25,0,0,0,.25-.25V2.73A2.73,2.73,0,0,1,63.32,0h.4V36.25Zm1-16.38a.25.25,0,0,0-.25.25V35.2a.25.25,0,0,0,.25.25h1a.25.25,0,0,0,.25-.25V20.12a.25.25,0,0,0-.25-.25Zm-13.56,0a.26.26,0,0,0-.25.25V35.2a.25.25,0,0,0,.25.25h1a.25.25,0,0,0,.25-.25V20.12a.25.25,0,0,0-.25-.25Zm1.84-2.47A2.09,2.09,0,0,0,48,18.74.23.23,0,0,0,48,19a.23.23,0,0,0,.2.11H62.67a.25.25,0,0,0,.25-.25V17.65a.25.25,0,0,0-.25-.25ZM62.67.92l-.09,0a1.94,1.94,0,0,0-1.2,1.79V16.36a.25.25,0,0,0,.25.25h1a.25.25,0,0,0,.25-.25V1.17A.26.26,0,0,0,62.81,1,.23.23,0,0,0,62.67.92Z"/><path class="cls-1" d="M13.55,36.25V20.12a.25.25,0,0,0-.25-.25H3.38a.25.25,0,0,0-.25.25V36.25H0V0H.4A2.74,2.74,0,0,1,3.13,2.73V16.36a.25.25,0,0,0,.25.25H13.81a2.88,2.88,0,0,1,2.81,2.27.23.23,0,0,0,.06.12V36.25Zm1-16.38a.25.25,0,0,0-.25.25V35.2a.25.25,0,0,0,.25.25h1a.25.25,0,0,0,.25-.25V20.12a.25.25,0,0,0-.25-.25ZM1,19.87a.25.25,0,0,0-.25.25V35.2a.25.25,0,0,0,.25.25h1a.25.25,0,0,0,.25-.25V20.12a.25.25,0,0,0-.25-.25ZM1,17.4a.25.25,0,0,0-.25.25v1.18a.25.25,0,0,0,.25.25H15.52a.25.25,0,0,0,.21-.11.23.23,0,0,0,0-.23,2.1,2.1,0,0,0-1.95-1.34ZM1,.92A.25.25,0,0,0,.9,1a.26.26,0,0,0-.11.21V16.36a.25.25,0,0,0,.25.25h1a.25.25,0,0,0,.25-.25V2.73A1.94,1.94,0,0,0,1.14.94Z"/><path class="cls-1" d="M21.27,36.25v-3h7.41a.25.25,0,0,0,.25-.25V18.86a.24.24,0,0,0-.17-.23,9.08,9.08,0,0,1-5.45-5.69.25.25,0,0,0-.23-.17H10.67V9.82H53v2.95H40.64a.26.26,0,0,0-.24.17A9,9,0,0,1,35,18.62a.25.25,0,0,0-.16.24V33.05a.25.25,0,0,0,.25.25h7.4v3Zm1-2.16a.25.25,0,0,0-.25.25v.86a.25.25,0,0,0,.25.25H41.4a.25.25,0,0,0,.25-.25v-.86a.25.25,0,0,0-.25-.25ZM30,19a.25.25,0,0,0-.16.06.23.23,0,0,0-.09.19V33.05a.25.25,0,0,0,.25.25h3.78a.25.25,0,0,0,.25-.25V19.24a.24.24,0,0,0-.1-.19.22.22,0,0,0-.15-.06h-.06a9.39,9.39,0,0,1-1.83.19A9.5,9.5,0,0,1,30,19Zm-6-8.38a.25.25,0,0,0-.18.08.26.26,0,0,0-.07.19,8.17,8.17,0,0,0,16.29,0,.22.22,0,0,0-.06-.19.27.27,0,0,0-.19-.08Zm17.09,0a.25.25,0,0,0-.25.23c0,.28-.06.56-.1.84a.3.3,0,0,0,0,.21A.28.28,0,0,0,41,12H52a.25.25,0,0,0,.25-.25v-.86a.25.25,0,0,0-.25-.25Zm-29.33,0a.25.25,0,0,0-.25.25v.86a.25.25,0,0,0,.25.25h11a.26.26,0,0,0,.19-.08.26.26,0,0,0,.06-.21,8,8,0,0,1-.1-.84.25.25,0,0,0-.25-.23Z"/></g></g></svg>