<svg xmlns="http://www.w3.org/2000/svg" viewBox="0 0 47 35.15"><defs><style>.cls-1{fill:#666;fill-rule:evenodd;}</style></defs><g id="レイヤー_2" data-name="レイヤー 2"><g id="レイヤー_1-2" data-name="レイヤー 1"><path class="cls-1" d="M20.5,33.08A.48.48,0,0,1,20,32.6a.49.49,0,0,1,.49-.49h6a.49.49,0,0,1,.48.49.48.48,0,0,1-.48.48ZM47,2.92A2.9,2.9,0,0,0,46.15.86h0A2.88,2.88,0,0,0,44.08,0H2.92A2.94,2.94,0,0,0,0,2.92V32.23a2.94,2.94,0,0,0,.85,2.06h0a2.9,2.9,0,0,0,2.06.85H44.08a2.91,2.91,0,0,0,2.07-.85A2.94,2.94,0,0,0,47,32.23V2.92ZM46,32.23V2.92a1.94,1.94,0,0,0-.57-1.37h0A1.93,1.93,0,0,0,44.08,1H2.92a1.91,1.91,0,0,0-1.37.58A1.91,1.91,0,0,0,1,2.92V32.23a2,2,0,0,0,.57,1.38h0a1.93,1.93,0,0,0,1.37.57H44.08a1.95,1.95,0,0,0,2-2Zm-1.85-29V30.66a.49.49,0,0,1-.49.49H3.31a.49.49,0,0,1-.49-.49V3.24a.49.49,0,0,1,.49-.48H43.69a.49.49,0,0,1,.49.48Zm-1,26.93H3.8V3.73H43.2Z"/></g></g></svg>