<svg xmlns="http://www.w3.org/2000/svg" viewBox="0 0 49.54 38.2"><defs><style>.cls-1{fill:#666;fill-rule:evenodd;}</style></defs><g id="レイヤー_2" data-name="レイヤー 2"><g id="レイヤー_1-2" data-name="レイヤー 1"><path class="cls-1" d="M20.37,22.19a.49.49,0,0,1,0,1H6.08a.49.49,0,1,1,0-1Zm11,8.64A2.91,2.91,0,0,0,33.48,30a3,3,0,0,0,.87-2.09V25.94h2.93l9.59,7.28a.49.49,0,0,0,.69-.1.48.48,0,0,0,.09-.38h0l-1.26-6.8h.19a3,3,0,0,0,2.09-.87A2.91,2.91,0,0,0,49.54,23V3A3,3,0,0,0,48.67.87h0A3,3,0,0,0,46.58,0H18.15a3,3,0,0,0-3,3V4.89H3a3,3,0,0,0-3,3v20A2.94,2.94,0,0,0,.86,30h0A3,3,0,0,0,3,30.83h.19l-1.26,6.8h0A.44.44,0,0,0,2,38a.49.49,0,0,0,.69.1l9.59-7.28Zm-19.29-1H31.39a2,2,0,0,0,2-2v-20a2,2,0,0,0-.57-1.4h0a2,2,0,0,0-1.39-.58H3a2,2,0,0,0-2,2v20a2,2,0,0,0,.57,1.39h0A1.94,1.94,0,0,0,3,29.84h.87a.49.49,0,0,1,.39.57L3.08,36.55,11.76,30a.51.51,0,0,1,.34-.13ZM34.35,25h3.09a.51.51,0,0,1,.34.13l8.67,6.59-1.13-6.13a.49.49,0,0,1,.39-.58h.87a2,2,0,0,0,2-2V3A1.94,1.94,0,0,0,48,1.57h0A2,2,0,0,0,46.58,1H18.15a2,2,0,0,0-1.4.58A1.94,1.94,0,0,0,16.17,3V4.89H31.39a3,3,0,0,1,2.09.86h0l0,0h.06v0h0v0h0l0,0h0V6h0l0,0h0V6h0l0,0h0v0h0v0h0v0h0v0h0l0,0h0v0h0v0h0v0h0v0h0v0h0v0h0v0h0v0h0v0h0l0,0h0v0h0v0h0v0h0l0,0h0v0h0v0h0v0h0v0h0v0h0v0h9.11a.5.5,0,0,1,0,1h-9v4.11h7.29a.5.5,0,0,1,0,1H34.35v4.43h9a.5.5,0,1,1,0,1h-9V25ZM25.69,11.67a.5.5,0,0,1,0,1H6.08a.5.5,0,0,1,0-1Zm2.58,5.1a.5.5,0,0,1,0,1H6.08a.5.5,0,0,1,0-1Z"/></g></g></svg>