<svg xmlns="http://www.w3.org/2000/svg" viewBox="0 0 105.69 129.8"><defs><style>.cls-1,.cls-2,.cls-3{fill-rule:evenodd;}.cls-2{fill:#fff;}.cls-3{fill:#68895d;}</style></defs><g id="レイヤー_2" data-name="レイヤー 2"><g id="レイヤー_1-2" data-name="レイヤー 1"><path class="cls-1" d="M14,64.55a1.22,1.22,0,1,1,0-2.44H50.39a1.22,1.22,0,0,1,0,2.44ZM7.33,0h0A7.34,7.34,0,0,0,0,7.33H0V93.79H0a7.34,7.34,0,0,0,7.32,7.32H69.53a7.32,7.32,0,0,0,7.33-7.32l0-66.57v-.12a1.22,1.22,0,0,0-.43-.92L50.73.43A1.22,1.22,0,0,0,49.8,0H7.33ZM48.58,2.44H7.32A4.88,4.88,0,0,0,2.44,7.33h0V93.79h0a4.92,4.92,0,0,0,4.89,4.89H69.53A4.92,4.92,0,0,0,73,97.25a4.83,4.83,0,0,0,1.43-3.45l0-65.47H55.91a7.29,7.29,0,0,1-5.17-2.14h0A7.32,7.32,0,0,1,48.58,21V2.44ZM72.72,25.9H55.91a4.88,4.88,0,0,1-3.45-1.44h0A4.88,4.88,0,0,1,51,21V4.17L72.72,25.9ZM58.22,68.85A7.28,7.28,0,0,1,63.39,71h0a7.33,7.33,0,0,1,0,10.34h0A7.31,7.31,0,0,1,53,71.05l.06-.06a7.25,7.25,0,0,1,5.17-2.14Zm-6.9.42a9.75,9.75,0,0,1,13.79,0h0a9.75,9.75,0,0,1,0,13.78h0A9.75,9.75,0,0,1,51.26,69.33l.06-.06ZM14,38.39a1.23,1.23,0,1,1,0-2.45H56.71a1.23,1.23,0,0,1,0,2.45Zm0,12.68a1.22,1.22,0,1,1,0-2.44H60.19a1.22,1.22,0,0,1,0,2.44Z"/><path class="cls-2" d="M75.93,73.43l11.9-20.61a5.15,5.15,0,0,1,7-1.89h0l8.25,4.76h0a5.15,5.15,0,0,1,1.89,7h0L93.13,83.27l0,.07L82.62,101.48l-6.76,17.86a.9.9,0,0,1-.46.48l-19.63,9.85a.84.84,0,0,1-.88,0,.88.88,0,0,1-.43-.77l-1.28-22a.85.85,0,0,1,.19-.58h0L65.45,91.57,75.93,73.43Z"/><path class="cls-3" d="M58.22,68.85A7.28,7.28,0,0,1,63.39,71h0a7.33,7.33,0,0,1,0,10.34h0A7.31,7.31,0,0,1,53,71.05l.06-.06a7.25,7.25,0,0,1,5.17-2.14Z"/><path class="cls-3" d="M92.05,81.74l11.46-19.87h0a3.41,3.41,0,0,0,.34-2.6,3.46,3.46,0,0,0-1.6-2.09h0L94,52.42h0a3.45,3.45,0,0,0-4.69,1.25L77.84,73.54l14.21,8.2Z"/><polygon class="cls-3" points="81.53 99.93 91.18 83.22 76.98 75.02 67.34 91.73 81.53 99.93 81.53 99.93"/><path class="cls-1" d="M69.59,104.22a4,4,0,0,1,1.46,5.44,4,4,0,0,1-4.65,1.8l-8.91,15.43,16.88-8.47,6.42-16.94L66.37,93.16l-11.46,14L56,126l8.91-15.44a4,4,0,0,1-.76-4.92,4,4,0,0,1,5.43-1.46ZM92.05,81.74l11.46-19.87h0a3.41,3.41,0,0,0,.34-2.6,3.46,3.46,0,0,0-1.6-2.09h0L94,52.42h0a3.45,3.45,0,0,0-4.69,1.25L77.84,73.54l14.21,8.2ZM75.93,73.43l11.9-20.61a5.15,5.15,0,0,1,7-1.89h0l8.25,4.76h0a5.15,5.15,0,0,1,1.89,7h0L93.13,83.27l0,.07L82.62,101.48l-6.76,17.86a.9.9,0,0,1-.46.48l-19.63,9.85a.84.84,0,0,1-.88,0,.88.88,0,0,1-.43-.77l-1.28-22a.85.85,0,0,1,.19-.58h0L65.45,91.57,75.93,73.43Zm5.61,26.5,9.64-16.71L77,75,67.34,91.73l14.2,8.2Zm-11.75,7.15a2.26,2.26,0,1,1-4.37,1.17,2.21,2.21,0,0,1,.23-1.71A2.25,2.25,0,0,1,67,105.48a2.27,2.27,0,0,1,2.77,1.6Z"/></g></g></svg>