<svg xmlns="http://www.w3.org/2000/svg" viewBox="0 0 60.1 35.45"><defs><style>.cls-1{fill:#666;}.cls-1,.cls-2{fill-rule:evenodd;}.cls-2{fill:#fff;}</style></defs><g id="レイヤー_2" data-name="レイヤー 2"><g id="レイヤー_1-2" data-name="レイヤー 1"><path class="cls-1" d="M43.26.83l5.23,5.24V2.49A1.64,1.64,0,0,0,48,1.32,1.67,1.67,0,0,0,46.83.83Zm1.92,12.94a.42.42,0,1,1,0,.83H28.39a.42.42,0,0,1,0-.83Zm0-4.61a.42.42,0,1,1,0,.83H28.39a.42.42,0,0,1,0-.83Zm0,13.84a.41.41,0,0,1,.42.41.42.42,0,0,1-.42.42H28.39a.41.41,0,0,1-.41-.42.41.41,0,0,1,.41-.41Zm0-4.62a.42.42,0,0,1,.42.42.41.41,0,0,1-.42.41H28.39A.41.41,0,0,1,28,18.8a.41.41,0,0,1,.41-.42Zm-33.48-6-1.67-1L7.51,13.23a.39.39,0,0,1-.39.06h0l-2.56-1V14.1H11.7V12.35Zm-7.14-1V9.16H11.7v2.22l-1.48-.9a.41.41,0,0,0-.48,0L7.2,12.43l-2.64-1ZM4.14,8.34h8a.41.41,0,0,1,.41.41v5.77a.41.41,0,0,1-.41.41h-8a.41.41,0,0,1-.41-.41V8.75a.41.41,0,0,1,.41-.41Zm10.6,6.26a.42.42,0,1,1,0-.83h6.2a.42.42,0,0,1,0,.83Zm0-4.61a.42.42,0,1,1,0-.83h6.2a.42.42,0,0,1,0,.83ZM4.14,23.83a.41.41,0,0,1-.41-.42A.41.41,0,0,1,4.14,23h16.8a.41.41,0,0,1,.41.41.42.42,0,0,1-.41.42Zm0-4.62a.41.41,0,0,1-.41-.41.41.41,0,0,1,.41-.42h16.8a.42.42,0,0,1,.41.42.41.41,0,0,1-.41.41ZM2.49,32.15a1.64,1.64,0,0,1-1.17-.48,1.67,1.67,0,0,1-.49-1.18v-28a1.65,1.65,0,0,1,.49-1.17h0A1.61,1.61,0,0,1,2.49.83H24.25V32.15ZM24.66,33H2.49A2.51,2.51,0,0,1,0,30.49v-28A2.47,2.47,0,0,1,.73.74h0A2.5,2.5,0,0,1,2.49,0H46.83a2.49,2.49,0,0,1,2.49,2.49V7a.25.25,0,0,1,0,.17V30.49a2.48,2.48,0,0,1-.73,1.76h0a2.49,2.49,0,0,1-1.76.74ZM48.49,7.49v23A1.66,1.66,0,0,1,48,31.67h0a1.66,1.66,0,0,1-1.18.48H25.08V.83H41.85V5a2.49,2.49,0,0,0,2.49,2.49Zm-.57-.83H44.34A1.67,1.67,0,0,1,42.68,5V1.42Z"/><path class="cls-2" d="M51,30.89a.24.24,0,0,1-.06.11.41.41,0,0,1-.11.07l-6.59,4.22a1,1,0,0,1-.52.16,1,1,0,0,1-.53-.13h0a1.09,1.09,0,0,1-.39-.38,1.07,1.07,0,0,1-.13-.53l.18-7.87a.26.26,0,0,1,0-.15h0l8.92-15.86a1.73,1.73,0,0,1,1-.83h0a1.71,1.71,0,0,1,1.32.16l.9.51,3.24,1.82.9.51h0A1.76,1.76,0,0,1,60,13.75a1.73,1.73,0,0,1-.16,1.33h0L51,30.89Z"/><path class="cls-1" d="M44.8,28l9.72-17.29-.64-.36a1.17,1.17,0,0,0-.89-.11h0a1.16,1.16,0,0,0-.71.56L43.46,26.49,44.8,28ZM55,11,45.32,28.28l3.31.42h0l9.08-16.15L55,11Zm3.24,1.82L49.2,29h0l1.41,1.35L59.36,14.8h0a1.16,1.16,0,0,0,.11-.89,1.13,1.13,0,0,0-.55-.7h0l-.65-.37ZM51,30.89a.24.24,0,0,1-.06.11.41.41,0,0,1-.11.07l-6.59,4.22a1,1,0,0,1-.52.16,1,1,0,0,1-.53-.13h0a1.09,1.09,0,0,1-.39-.38,1.07,1.07,0,0,1-.13-.53l.18-7.87a.26.26,0,0,1,0-.15h0l8.92-15.86a1.73,1.73,0,0,1,1-.83h0a1.71,1.71,0,0,1,1.32.16l.9.51,3.24,1.82.9.51h0A1.76,1.76,0,0,1,60,13.75a1.73,1.73,0,0,1-.16,1.33h0L51,30.89Zm-.75-.14L46.72,33l-1-1.28h0a.31.31,0,0,0-.29-.1l-1.51.33-.62-.72.09-3.93,1.07,1.21a.92.92,0,0,0,.29.23.8.8,0,0,0,.35.11h0l3.47.44a.33.33,0,0,1,.14,0,.38.38,0,0,1,.11.08l1.41,1.35Zm-6.95,1.34-.05,2.33a.46.46,0,0,0,.06.23.38.38,0,0,0,.17.16h0a.46.46,0,0,0,.22.06.48.48,0,0,0,.23-.07l2.33-1.49-.86-1.09-1.48.32a.29.29,0,0,1-.3-.09Z"/></g></g></svg>